<?xml version="1.0" encoding="utf-8"?>
<!-- Generator: Adobe Illustrator 18.0.0, SVG Export Plug-In . SVG Version: 6.00 Build 0)  -->
<!DOCTYPE svg PUBLIC "-//W3C//DTD SVG 1.1//EN" "http://www.w3.org/Graphics/SVG/1.1/DTD/svg11.dtd">
<svg version="1.1" id="Layer_1" xmlns="http://www.w3.org/2000/svg" xmlns:xlink="http://www.w3.org/1999/xlink" x="0px" y="0px"
	 viewBox="0 0 512 512" enable-background="new 0 0 512 512" xml:space="preserve">
<path fill="#4877BC" d="M502.6,443.8c-6.8-20.3-19-40.7-37.1-52.6c-34.8-23.1-75.3-35.4-114.4-48.6c-9.4-3.3-19.1-6.9-27.7-12.1
	c-7.7-4.6-10.6-14-12.4-22.2c-0.8-4.4-1.3-8.8-1.5-13.2c28.4-38.9,47.2-102.3,47.2-154.3C356.7,59.6,310.8,37,254.3,37
	c-56.6,0-102.4,22.6-102.4,103.7c0,53.9,20.2,119.9,50.3,158.3c-0.3,3-0.6,6.1-1.2,9.1c-1.8,8.3-4.7,17.5-12.4,22
	c-8.6,5.1-18.2,8.4-27.7,11.7c-39.2,13.2-79.7,24.8-114.4,47.9c-18.1,11.9-30.3,33.7-37.1,54c-7,21-9.8,47.1-9.4,68.2H256h256
	C512.4,490.9,509.5,464.8,502.6,443.8z"/>
</svg>
